<?xml version="1.0" encoding="UTF-8"?> <svg xmlns="http://www.w3.org/2000/svg" width="36" height="36" viewBox="0 0 36 36" fill="none"><path d="M13.5 1.5V4.5H22.5V1.5H25.5V4.5H31.5C32.3284 4.5 33 5.17158 33 6V30C33 30.8284 32.3284 31.5 31.5 31.5H4.5C3.67158 31.5 3 30.8284 3 30V6C3 5.17158 3.67158 4.5 4.5 4.5H10.5V1.5H13.5ZM30 15H6V28.5H30V15ZM22.5532 16.704L24.6745 18.8254L17.25 26.25L11.9467 20.9468L14.068 18.8254L17.25 22.0074L22.5532 16.704ZM10.5 7.5H6V12H30V7.5H25.5V9H22.5V7.5H13.5V9H10.5V7.5Z" fill="url(#paint0_linear_242_622)"></path><defs><linearGradient id="paint0_linear_242_622" x1="3" y1="16.5" x2="33" y2="16.5" gradientUnits="userSpaceOnUse"><stop stop-color="#A567E1"></stop><stop offset="1" stop-color="#4995E1"></stop></linearGradient></defs></svg> 