<?xml version="1.0" encoding="UTF-8"?> <svg xmlns="http://www.w3.org/2000/svg" width="38" height="38" viewBox="0 0 38 38" fill="none"><path d="M33.25 33.25H4.74996C3.87552 33.25 3.16663 32.5411 3.16663 31.6667V19.7708C3.16663 19.3132 3.36456 18.8779 3.70942 18.5773L9.49996 13.5286V6.33333C9.49996 5.45889 10.2088 4.75 11.0833 4.75H33.25C34.1244 4.75 34.8333 5.45889 34.8333 6.33333V31.6667C34.8333 32.5411 34.1244 33.25 33.25 33.25ZM14.25 30.0833H19V20.4909L12.6666 14.9689L6.33329 20.4909V30.0833H11.0833V23.75H14.25V30.0833ZM22.1666 30.0833H31.6666V7.91667H12.6666V11.2849C13.0378 11.2849 13.409 11.4149 13.7072 11.6748L21.6239 18.5773C21.9687 18.8779 22.1666 19.3132 22.1666 19.7708V30.0833ZM25.3333 17.4167H28.5V20.5833H25.3333V17.4167ZM25.3333 23.75H28.5V26.9167H25.3333V23.75ZM25.3333 11.0833H28.5V14.25H25.3333V11.0833ZM19 11.0833H22.1666V14.25H19V11.0833Z" fill="url(#paint0_linear_290_374)"></path><defs><linearGradient id="paint0_linear_290_374" x1="3.16663" y1="19" x2="34.8333" y2="19" gradientUnits="userSpaceOnUse"><stop stop-color="#A567E1"></stop><stop offset="1" stop-color="#4995E1"></stop></linearGradient></defs></svg> 