<?xml version="1.0" encoding="UTF-8"?> <svg xmlns="http://www.w3.org/2000/svg" width="48" height="48" viewBox="0 0 48 48" fill="none"><path d="M8.45114 24.912V27.18H13.7851V29H6.19714V19.2H13.6031V21.02H8.45114V23.148H13.0011V24.912H8.45114Z" fill="#2D3C45"></path><path d="M21.6097 21.72C21.1431 21.4773 20.6111 21.356 20.0137 21.356C19.3697 21.356 18.7957 21.4913 18.2917 21.762C17.9945 21.9216 17.7378 22.1219 17.5217 22.3627V21.468H15.4357V29H17.6197V25.276C17.6197 24.8093 17.6944 24.4267 17.8437 24.128C18.0024 23.8293 18.2171 23.61 18.4877 23.47C18.7677 23.3207 19.0804 23.246 19.4257 23.246C19.9111 23.246 20.2844 23.3907 20.5457 23.68C20.8164 23.9693 20.9517 24.4173 20.9517 25.024V29H23.1357V24.688C23.1357 23.9227 23.0004 23.2973 22.7297 22.812C22.4591 22.3173 22.0857 21.9533 21.6097 21.72Z" fill="#2D3C45"></path><path fill-rule="evenodd" clip-rule="evenodd" d="M26.6541 31.562C27.3168 31.7393 28.0028 31.828 28.7121 31.828C30.0748 31.828 31.1201 31.4967 31.8481 30.834C32.5761 30.1713 32.9401 29.14 32.9401 27.74V21.468H30.8681V22.4249C30.643 22.1378 30.3723 21.9122 30.0561 21.748C29.5708 21.4867 29.0108 21.356 28.3761 21.356C27.6761 21.356 27.0414 21.5053 26.4721 21.804C25.9121 22.1027 25.4594 22.5273 25.1141 23.078C24.7781 23.6193 24.6101 24.2587 24.6101 24.996C24.6101 25.724 24.7781 26.3633 25.1141 26.914C25.4594 27.4553 25.9121 27.88 26.4721 28.188C27.0414 28.4867 27.6761 28.636 28.3761 28.636C29.0108 28.636 29.5708 28.5053 30.0561 28.244C30.3215 28.1011 30.5549 27.9177 30.7561 27.6938V28.02C30.7561 28.7013 30.5788 29.2147 30.2241 29.56C29.8788 29.9053 29.3188 30.078 28.5441 30.078C28.0681 30.078 27.5828 29.9987 27.0881 29.84C26.6028 29.6907 26.2014 29.4853 25.8841 29.224L25.0161 30.792C25.4548 31.1373 26.0008 31.394 26.6541 31.562ZM29.8321 26.62C29.5334 26.7693 29.1928 26.844 28.8101 26.844C28.4274 26.844 28.0868 26.7693 27.7881 26.62C27.4894 26.4613 27.2514 26.242 27.0741 25.962C26.9061 25.682 26.8221 25.36 26.8221 24.996C26.8221 24.6227 26.9061 24.3007 27.0741 24.03C27.2514 23.75 27.4894 23.5353 27.7881 23.386C28.0868 23.2273 28.4274 23.148 28.8101 23.148C29.1928 23.148 29.5334 23.2273 29.8321 23.386C30.1308 23.5353 30.3641 23.75 30.5321 24.03C30.7001 24.3007 30.7841 24.6227 30.7841 24.996C30.7841 25.36 30.7001 25.682 30.5321 25.962C30.3641 26.242 30.1308 26.4613 29.8321 26.62Z" fill="#2D3C45"></path><path d="M36 23.6667L40 27.6667L44 23.6667H36Z" fill="#2D3C45"></path></svg> 