<?xml version="1.0" encoding="UTF-8"?> <svg xmlns="http://www.w3.org/2000/svg" width="48" height="48" viewBox="0 0 48 48" fill="none"><path d="M20.7442 20.6681L18.8442 22.0252C19.0575 22.5742 19.3085 23.1044 19.5939 23.6126L19.627 23.6707C20.7413 25.6303 22.3697 27.2587 24.3293 28.373L24.3874 28.4061C24.8956 28.6915 25.4258 28.9425 25.9748 29.1558L27.3319 27.2558C28.4949 27.7945 29.7282 28.1637 31 28.3527V30.9909C30.8337 30.997 30.667 31 30.5 31C23.0442 31 17 24.9558 17 17.5C17 17.333 17.003 17.1663 17.0091 17H19.6473C19.8363 18.2718 20.2055 19.5051 20.7442 20.6681Z" fill="#ADB3B6"></path><path fill-rule="evenodd" clip-rule="evenodd" d="M24 48C37.2548 48 48 37.2548 48 24C48 10.7452 37.2548 0 24 0C10.7452 0 0 10.7452 0 24C0 37.2548 10.7452 48 24 48ZM25.3179 26.6344C23.6712 25.698 22.302 24.3288 21.3656 22.6821L22.6039 21.7976C23.0155 21.5035 23.1427 20.9484 22.9002 20.5044C22.1317 19.0976 21.6647 17.5429 21.5363 15.9211C21.4951 15.401 21.0611 15 20.5394 15H16.0767C15.5639 15 15.1343 15.3877 15.0819 15.8978C15.0274 16.4277 15 16.9623 15 17.5C15 26.0604 21.9396 33 30.5 33C31.0377 33 31.5723 32.9726 32.1022 32.9181C32.6122 32.8657 33 32.4361 33 31.9234V27.4606C33 26.9389 32.599 26.5049 32.0789 26.4637C30.4571 26.3353 28.9024 25.8683 27.4956 25.0998C27.0516 24.8573 26.4965 24.9845 26.2024 25.3961L25.3179 26.6344Z" fill="#ADB3B6"></path></svg> 