<?xml version="1.0" encoding="UTF-8"?> <svg xmlns="http://www.w3.org/2000/svg" width="167" height="70" viewBox="0 0 167 70" fill="none"><path d="M139.931 10.6641C140.094 10.3359 140.04 10.0625 139.821 9.84375L138.075 8.20313C137.966 8.09375 138.075 7.875 138.239 7.875L140.858 7.71094C141.131 7.71094 141.459 7.49219 141.622 7.21875L142.987 4.8125C143.096 4.64844 143.314 4.64844 143.369 4.8125L143.86 7.21875C143.915 7.49219 144.133 7.71094 144.46 7.71094L147.025 7.875C147.189 7.875 147.244 8.09375 147.08 8.20313L144.788 9.84375C144.515 10.0625 144.406 10.3906 144.406 10.6641L144.624 13.1797C144.679 13.3438 144.46 13.5078 144.297 13.3984L142.387 11.9766C142.114 11.8125 141.786 11.8125 141.513 11.9766L139.112 13.3984C138.948 13.5078 138.785 13.3438 138.839 13.1797L139.931 10.6641Z" fill="#4A2600"></path><path d="M160.123 50.6404H5.89408C5.78493 50.6404 5.67578 50.531 5.67578 50.4217V49.0545C5.67578 48.9451 5.78493 48.8357 5.89408 48.8357H160.123C160.233 48.8357 160.342 48.9451 160.342 49.0545V50.4217C160.342 50.531 160.233 50.6404 160.123 50.6404Z" fill="#4A2600"></path><path d="M126.614 9.84375C126.833 10.0625 126.887 10.3359 126.723 10.6641L125.632 13.1797C125.577 13.3438 125.741 13.5078 125.905 13.3984L128.306 11.9766C128.579 11.8125 128.906 11.8125 129.179 11.9766L131.089 13.3984C131.253 13.5078 131.472 13.3438 131.417 13.1797L131.199 10.6641C131.199 10.3906 131.308 10.0625 131.581 9.84375L133.873 8.20313C134.037 8.09375 133.982 7.875 133.818 7.875L131.253 7.71094C130.926 7.71094 130.707 7.49219 130.653 7.21875L130.162 4.8125C130.107 4.64844 129.889 4.64844 129.78 4.8125L128.415 7.21875C128.252 7.49219 127.924 7.71094 127.651 7.71094L125.032 7.875C124.868 7.875 124.759 8.09375 124.868 8.20313L126.614 9.84375Z" fill="#4A2600"></path><path d="M113.571 10.6641C113.735 10.3359 113.68 10.0625 113.462 9.84375L111.715 8.20313C111.606 8.09375 111.715 7.875 111.879 7.875L114.499 7.71094C114.772 7.71094 115.099 7.49219 115.263 7.21875L116.627 4.8125C116.736 4.64844 116.955 4.64844 117.009 4.8125L117.5 7.21875C117.555 7.49219 117.773 7.71094 118.101 7.71094L120.666 7.875C120.829 7.875 120.884 8.09375 120.72 8.20313L118.428 9.84375C118.155 10.0625 118.046 10.3906 118.046 10.6641L118.264 13.1797C118.319 13.3438 118.101 13.5078 117.937 13.3984L116.027 11.9766C115.754 11.8125 115.426 11.8125 115.154 11.9766L112.752 13.3984C112.589 13.5078 112.425 13.3438 112.479 13.1797L113.571 10.6641Z" fill="#4A2600"></path><path d="M152.974 9.84375C153.192 10.0625 153.247 10.3359 153.083 10.6641L151.992 13.1797C151.937 13.3438 152.101 13.5078 152.265 13.3984L154.666 11.9766C154.939 11.8125 155.266 11.8125 155.539 11.9766L157.449 13.3984C157.613 13.5078 157.831 13.3438 157.777 13.1797L157.558 10.6641C157.558 10.3906 157.668 10.0625 157.94 9.84375L160.233 8.20313C160.396 8.09375 160.342 7.875 160.178 7.875L157.613 7.71094C157.286 7.71094 157.067 7.49219 157.013 7.21875L156.522 4.8125C156.467 4.64844 156.249 4.64844 156.14 4.8125L154.775 7.21875C154.611 7.49219 154.284 7.71094 154.011 7.71094L151.391 7.875C151.228 7.875 151.119 8.09375 151.228 8.20313L152.974 9.84375Z" fill="#4A2600"></path><path d="M31.217 20.1249L31.2715 38.664H36.1833L36.1287 10.7187H31.8719L21.0114 29.2578L9.93264 10.7187H5.67578V38.664H10.5875V20.3984L19.7562 35.4921H22.1029L31.217 20.1249Z" fill="#4A2600"></path><path fill-rule="evenodd" clip-rule="evenodd" d="M58.3954 19.3593C60.0326 20.8906 60.9058 23.1328 60.9058 26.1406V38.6093H56.2124V36.039C55.612 36.9687 54.7388 37.6796 53.5927 38.1718C52.4467 38.664 51.0823 38.8828 49.4996 38.8828C47.9169 38.8828 46.498 38.6093 45.2973 38.0624C44.0967 37.5156 43.1689 36.7499 42.514 35.7656C41.8591 34.7812 41.5316 33.6874 41.5316 32.4843C41.5316 30.5703 42.2411 29.039 43.6601 27.8906C45.079 26.7421 47.3166 26.1406 50.3728 26.1406H55.8849V25.8124C55.8849 24.3359 55.4483 23.1874 54.5751 22.3671C53.7019 21.5468 52.3375 21.164 50.5911 21.164C49.3905 21.164 48.2444 21.3281 47.0437 21.7109C45.8976 22.0937 44.9153 22.5859 44.0967 23.2421L42.132 19.6328C43.2235 18.7578 44.5878 18.1562 46.1705 17.664C47.7532 17.2265 49.3905 17.0078 51.1369 17.0078C54.3568 17.1171 56.7035 17.8281 58.3954 19.3593ZM53.8656 34.4531C54.848 33.9062 55.5029 33.0859 55.9395 31.9921V29.5312H50.7548C47.8624 29.5312 46.4434 30.4609 46.4434 32.3749C46.4434 33.3046 46.8254 34.0156 47.5349 34.5078C48.2444 35.0546 49.2267 35.3281 50.5365 35.3281C51.7918 35.3281 52.8833 34.9999 53.8656 34.4531Z" fill="#4A2600"></path><path d="M71.8754 33.0311L75.5865 29.5311L82.9542 38.664H89.012L79.2976 26.3046L88.1934 17.3358H82.2447L71.8754 26.9061V9.02333H66.9091V38.664H71.8754V33.0311Z" fill="#4A2600"></path><path d="M94.4696 38.2811C92.8323 37.8436 91.5225 37.2421 90.5402 36.5858L92.4503 32.8124C93.4326 33.4686 94.5787 33.9608 95.8885 34.3436C97.2529 34.7265 98.5627 34.9452 99.8725 34.9452C102.874 34.9452 104.348 34.1796 104.348 32.5936C104.348 31.828 103.966 31.3358 103.202 31.0624C102.438 30.789 101.237 30.5155 99.5451 30.2421C97.7987 29.9686 96.3797 29.6952 95.2882 29.3124C94.1967 28.9843 93.2143 28.3827 92.3957 27.5077C91.5771 26.6327 91.1951 25.4296 91.1951 23.8983C91.1951 21.8749 92.0137 20.2343 93.7055 19.0311C95.3974 17.828 97.6895 17.2265 100.527 17.2265C102.001 17.2265 103.474 17.3905 104.893 17.7186C106.367 18.0468 107.568 18.4843 108.495 19.0311L106.585 22.8046C104.784 21.7655 102.765 21.2186 100.473 21.2186C98.9993 21.2186 97.9078 21.4374 97.1438 21.8749C96.3797 22.3124 95.9977 22.914 95.9977 23.6249C95.9977 24.4452 96.3797 24.9921 97.1983 25.3202C98.017 25.6483 99.2722 25.9765 100.964 26.2499C102.656 26.5233 104.075 26.7968 105.166 27.1796C106.258 27.5077 107.186 28.1093 107.95 28.9296C108.714 29.7499 109.15 30.8983 109.15 32.4296C109.15 34.3983 108.277 36.039 106.585 37.2421C104.839 38.4452 102.492 39.0468 99.5451 39.0468C97.7987 38.9374 96.1614 38.7186 94.4696 38.2811Z" fill="#4A2600"></path><path d="M113.571 17.3359H118.537V38.6641H113.571V17.3359Z" fill="#4A2600"></path><path d="M157.995 19.4141C159.578 20.9453 160.342 23.2969 160.342 26.4141V38.6094H155.375V27.0156C155.375 25.1563 154.939 23.7344 154.12 22.8047C153.302 21.875 152.101 21.3828 150.573 21.3828C148.881 21.3828 147.571 21.9297 146.534 23.0234C145.552 24.1172 145.006 25.7031 145.006 27.7813V38.6094H140.04V27.0156C140.04 25.1563 139.603 23.7344 138.785 22.8047C137.966 21.875 136.765 21.3828 135.237 21.3828C133.545 21.3828 132.181 21.9297 131.199 23.0234C130.216 24.1172 129.725 25.7031 129.725 27.7813V38.6094H124.759V17.2813H129.507V20.0156C130.325 19.0313 131.308 18.3203 132.508 17.8281C133.709 17.3359 135.019 17.0625 136.492 17.0625C138.075 17.0625 139.494 17.3359 140.749 17.9375C142.004 18.5391 142.987 19.4141 143.696 20.6172C144.57 19.5234 145.716 18.6484 147.08 17.9922C148.444 17.3906 149.972 17.0625 151.664 17.0625C154.338 17.1172 156.467 17.8828 157.995 19.4141Z" fill="#4A2600"></path><path d="M11.9519 64.2576V57.5857H10.0964V60.1013H7.53134V57.5857H5.67578V64.2576H7.53134V61.6326H10.0964V64.2576H11.9519Z" fill="#4A2600"></path><path fill-rule="evenodd" clip-rule="evenodd" d="M14.6261 63.9843C14.1895 63.7655 13.862 63.4374 13.5891 63.0546C13.3163 62.6718 13.2071 62.1796 13.2071 61.6874C13.2071 61.1952 13.3163 60.703 13.5891 60.3202C13.862 59.9374 14.1895 59.6093 14.6261 59.3905C15.0627 59.1718 15.5538 59.0624 16.0996 59.0624C16.6454 59.0624 17.1365 59.1718 17.5731 59.3905C18.0097 59.6093 18.3372 59.9374 18.6101 60.3202C18.8829 60.703 18.9921 61.1952 18.9921 61.6874C18.9921 62.1796 18.8829 62.6718 18.6101 63.0546C18.3372 63.4374 18.0097 63.7655 17.5731 63.9843C17.1365 64.203 16.6454 64.3124 16.0996 64.3124C15.5538 64.3124 15.0627 64.203 14.6261 63.9843ZM16.8636 62.5624C17.0819 62.3436 17.1911 62.0155 17.1911 61.6327C17.1911 61.2499 17.0819 60.9765 16.8636 60.7577C16.6453 60.539 16.427 60.4296 16.0996 60.4296C15.7721 60.4296 15.4993 60.539 15.3355 60.7577C15.1172 60.9765 15.0081 61.2499 15.0081 61.6327C15.0081 62.0155 15.1172 62.3436 15.3355 62.5624C15.5538 62.7811 15.7721 62.8905 16.0996 62.8905C16.427 62.8905 16.6999 62.7811 16.8636 62.5624Z" fill="#4A2600"></path><path d="M23.1398 64.2576C23.3581 64.2029 23.5219 64.1482 23.6856 64.0389L23.249 62.7263C23.0853 62.8357 22.9215 62.8904 22.7032 62.8904C22.5395 62.8904 22.4304 62.8357 22.3212 62.7263C22.2121 62.617 22.1575 62.4529 22.1575 62.2888V60.5935H23.3581V59.2263H22.1575V57.8592H20.3565V59.2263H19.5924V60.5935H20.3565V62.3435C20.3565 62.9998 20.5202 63.492 20.9023 63.8201C21.2297 64.1482 21.7755 64.3123 22.4304 64.3123C22.7032 64.3123 22.9215 64.3123 23.1398 64.2576Z" fill="#4A2600"></path><path fill-rule="evenodd" clip-rule="evenodd" d="M29.798 62.1249H26.0869C26.1415 62.3983 26.3052 62.6171 26.5235 62.7265C26.7418 62.8905 27.0147 62.9452 27.3421 62.9452C27.5752 62.9452 27.7286 62.9053 27.9044 62.8596C27.9344 62.8518 27.9651 62.8438 27.997 62.8358C28.1607 62.7811 28.379 62.6718 28.5428 62.5077L29.4705 63.4921C28.9794 64.039 28.2153 64.3124 27.2875 64.3124C26.6872 64.3124 26.1415 64.203 25.7049 63.9843C25.2683 63.7655 24.8862 63.4374 24.6679 63.0546C24.395 62.6718 24.2859 62.1796 24.2859 61.6874C24.2859 61.1952 24.395 60.703 24.6679 60.3202C24.8862 59.9374 25.2683 59.6093 25.6503 59.3905C26.0869 59.1718 26.5781 59.0624 27.1238 59.0624C27.615 59.0624 28.1062 59.1718 28.5428 59.3905C28.9794 59.6093 29.3068 59.8827 29.5251 60.3202C29.7434 60.703 29.9071 61.1952 29.9071 61.7421C29.8686 61.7034 29.8572 61.7741 29.8346 61.9155C29.8253 61.9741 29.814 62.0448 29.798 62.1249ZM26.4143 60.539C26.2506 60.703 26.0869 60.9218 26.0323 61.1952H28.1607C28.1062 60.9218 27.997 60.703 27.7787 60.539C27.615 60.3749 27.3421 60.3202 27.0692 60.3202C26.8509 60.2655 26.5781 60.3749 26.4143 60.539Z" fill="#4A2600"></path><path d="M30.9987 57.2031H32.7997V64.2578H30.9987V57.2031Z" fill="#4A2600"></path><path d="M37.8205 62.7265C37.6022 62.6171 37.4385 62.453 37.3293 62.2343C37.2202 62.0155 37.1656 61.7968 37.1656 61.5233C37.1656 61.2499 37.2202 61.0311 37.3293 60.8124C37.4385 60.5936 37.6022 60.4296 37.8205 60.3202C38.0388 60.2108 38.2571 60.1561 38.53 60.1561C38.8029 60.1561 39.0212 60.2108 39.2395 60.3202C39.4578 60.4296 39.6215 60.5936 39.7307 60.8124C39.8398 61.0311 39.8944 61.2499 39.8944 61.5233C39.8944 61.7968 39.8398 62.0155 39.7307 62.2343C39.6215 62.453 39.4578 62.6171 39.2395 62.7265C39.0212 62.8358 38.8029 62.8905 38.53 62.8905C38.2571 62.8905 38.0388 62.8905 37.8205 62.7265Z" fill="#4A2600"></path><path fill-rule="evenodd" clip-rule="evenodd" d="M50.6457 62.453C50.6457 62.0155 50.5365 61.6873 50.3182 61.4139C50.0999 61.0858 49.8271 60.9217 49.3904 60.867C49.6633 60.703 49.8816 60.5389 50.0453 60.2655C50.2091 59.992 50.2637 59.7186 50.2637 59.3905C50.2637 58.8436 50.0453 58.4608 49.6087 58.1327C49.1721 57.8045 48.5718 57.6405 47.6986 57.6405H44.315V64.3123H47.9169C48.7901 64.3123 49.445 64.1483 49.9362 63.8202C50.4274 63.492 50.6457 63.0545 50.6457 62.453ZM46.2251 60.2108V58.8983H47.5349C48.1352 58.8983 48.4627 59.117 48.4627 59.5545C48.4627 59.992 48.1898 60.2108 47.5349 60.2108H46.2251ZM47.8078 61.5233C48.4627 61.5233 48.7901 61.742 48.7901 62.1795C48.7901 62.6717 48.4627 62.8905 47.8078 62.8905H46.2251V61.5233H47.8078Z" fill="#4A2600"></path><path d="M52.0101 58.2421C51.7918 58.078 51.6826 57.8046 51.6826 57.5311C51.6826 57.2577 51.7918 57.039 52.0101 56.8749C52.2284 56.7108 52.5012 56.6015 52.8287 56.6015C53.1561 56.6015 53.429 56.7108 53.6473 56.8749C53.8656 57.039 53.9748 57.2577 53.9748 57.5311C53.9748 57.8046 53.8656 58.078 53.6473 58.2421C53.429 58.4061 53.1561 58.5155 52.8287 58.5155C52.4467 58.5155 52.1738 58.4061 52.0101 58.2421Z" fill="#4A2600"></path><path d="M51.9009 59.0624H53.7019V64.203H51.9009V59.0624Z" fill="#4A2600"></path><path d="M54.7934 63.7656C55.0117 63.9297 55.3392 64.0391 55.7758 64.1484C56.1578 64.2578 56.5944 64.3125 57.031 64.2578C57.5768 64.2578 58.0134 64.2031 58.3954 64.0391C58.7774 63.875 59.0503 63.7109 59.2686 63.4375C59.4323 63.1641 59.5415 62.8906 59.5415 62.5625C59.5415 62.1797 59.4323 61.8516 59.214 61.6328C59.0503 61.4141 58.7774 61.3047 58.5045 61.1953C58.2317 61.0859 57.9042 61.0313 57.4676 60.9766C57.1402 60.9219 56.9219 60.8672 56.7581 60.8125C56.5944 60.7578 56.5398 60.6484 56.5398 60.5391C56.5398 60.4297 56.649 60.3203 56.7581 60.2656C56.8673 60.2109 57.0856 60.1563 57.3585 60.1563C57.9042 60.1563 58.3954 60.2656 58.832 60.5391L59.3777 59.3359C59.1049 59.1719 58.832 59.0625 58.45 59.0078C58.1225 58.9531 57.7405 58.8984 57.3585 58.8984C56.8127 58.8984 56.3761 58.9531 55.9941 59.1172C55.6121 59.2813 55.3392 59.4453 55.1209 59.7188C54.9572 59.9922 54.848 60.2656 54.848 60.5938C54.848 60.9766 54.9572 61.3047 55.1755 61.5234C55.3938 61.7422 55.6666 61.9063 55.9395 61.9609C56.2124 62.0703 56.5398 62.125 56.9764 62.1797C57.3039 62.2344 57.5222 62.2891 57.6859 62.3438C57.8496 62.3438 57.9042 62.4531 57.9042 62.5625C57.9042 62.6719 57.8496 62.7812 57.7405 62.8359C57.6313 62.8906 57.413 62.9453 57.1402 62.9453C56.8127 62.9453 56.4853 62.9453 56.1578 62.8359C55.8304 62.7812 55.5575 62.6719 55.3392 62.5078L54.7934 63.7656Z" fill="#4A2600"></path><path d="M64.2349 64.0389C64.0712 64.1482 63.9074 64.2029 63.6891 64.2576C63.4708 64.3123 63.2525 64.3123 62.9797 64.3123C62.3248 64.3123 61.779 64.1482 61.4516 63.8201C61.0695 63.492 60.9058 62.9998 60.9058 62.3435V60.5935H60.1418V59.2263H60.9058V57.8592H62.7068V59.2263H63.9074V60.5935H62.7068V62.2888C62.7068 62.4529 62.7614 62.617 62.8705 62.7263C62.9797 62.8357 63.0888 62.8904 63.2525 62.8904C63.4708 62.8904 63.6346 62.8357 63.7983 62.7263L64.2349 64.0389Z" fill="#4A2600"></path><path d="M68.6009 59.0077C68.2735 59.0077 67.8915 59.0623 67.6186 59.1717C67.3457 59.2811 67.0728 59.4452 66.8545 59.6639V59.0623H65.1627V64.2577H66.9637V61.9061C66.9637 61.4686 67.0728 61.1405 67.2911 60.9217C67.5094 60.703 67.8369 60.5936 68.2189 60.5936C68.2389 60.5936 68.2735 60.6009 68.3174 60.6102C68.3934 60.6263 68.4972 60.6483 68.6009 60.6483V59.0077Z" fill="#4A2600"></path><path fill-rule="evenodd" clip-rule="evenodd" d="M70.7294 63.9843C70.2928 63.7655 69.9653 63.4374 69.6924 63.0546C69.4196 62.6718 69.3104 62.1796 69.3104 61.6874C69.3104 61.1952 69.4196 60.703 69.6924 60.3202C69.9653 59.9374 70.2928 59.6093 70.7294 59.3905C71.166 59.1718 71.6571 59.0624 72.2029 59.0624C72.7486 59.0624 73.2398 59.1718 73.6764 59.3905C74.113 59.6093 74.4405 59.9374 74.7133 60.3202C74.9862 60.703 75.0954 61.1952 75.0954 61.6874C75.0954 62.1796 74.9862 62.6718 74.7133 63.0546C74.4405 63.4374 74.113 63.7655 73.6764 63.9843C73.2398 64.203 72.7486 64.3124 72.2029 64.3124C71.6571 64.3124 71.166 64.203 70.7294 63.9843ZM72.9669 62.5624C73.1852 62.3436 73.2944 62.0155 73.2944 61.6327C73.2944 61.2499 73.1852 60.9765 72.9669 60.7577C72.7486 60.539 72.5303 60.4296 72.2029 60.4296C71.8754 60.4296 71.6026 60.539 71.4388 60.7577C71.2205 60.9765 71.1114 61.2499 71.1114 61.6327C71.1114 62.0155 71.2205 62.3436 71.4388 62.5624C71.6571 62.7811 71.8754 62.8905 72.2029 62.8905C72.5303 62.8905 72.8032 62.7811 72.9669 62.5624Z" fill="#4A2600"></path><path d="M79.3522 62.2343C79.4614 62.453 79.6251 62.6171 79.8434 62.7265C80.0617 62.8905 80.28 62.8905 80.5529 62.8905C80.8258 62.8905 81.0441 62.8358 81.2623 62.7265C81.4806 62.6171 81.6444 62.453 81.7535 62.2343C81.8627 62.0155 81.9173 61.7968 81.9173 61.5233C81.9173 61.2499 81.8627 61.0311 81.7535 60.8124C81.6444 60.5936 81.4806 60.4296 81.2623 60.3202C81.0441 60.2108 80.8258 60.1561 80.5529 60.1561C80.28 60.1561 80.0617 60.2108 79.8434 60.3202C79.6251 60.4296 79.4614 60.5936 79.3522 60.8124C79.2431 61.0311 79.1885 61.2499 79.1885 61.5233C79.1885 61.7968 79.2431 62.0155 79.3522 62.2343Z" fill="#4A2600"></path><path d="M87.1019 64.1484C86.6108 64.039 86.1742 63.8203 85.8467 63.6015L86.447 62.2343C86.6477 62.3952 86.9075 62.4969 87.1829 62.6048C87.2819 62.6436 87.3829 62.6831 87.484 62.7265C87.866 62.8359 88.248 62.8906 88.63 62.8906C89.3395 62.8906 89.7215 62.7265 89.7215 62.3437C89.7215 62.1796 89.6124 62.0156 89.3941 61.9062C89.2343 61.8261 89.016 61.7754 88.7392 61.711C88.6379 61.6874 88.5287 61.6621 88.4117 61.6328C87.9206 61.5234 87.484 61.414 87.1565 61.3046C86.8291 61.1953 86.5562 60.9765 86.2833 60.7031C86.065 60.4296 85.9013 60.0468 85.9013 59.6093C85.9013 59.2265 86.0104 58.8437 86.2287 58.5156C86.447 58.1874 86.7745 57.914 87.2111 57.7499C87.6477 57.5859 88.1934 57.4765 88.8483 57.4765C89.2849 57.4765 89.7216 57.5312 90.1582 57.6406C90.5948 57.7499 90.9768 57.8593 91.2497 58.0781L90.6493 59.4999C89.9944 59.1718 89.3941 59.0078 88.7938 59.0078C88.4118 59.0078 88.1389 59.0624 87.9752 59.1718C87.8114 59.2812 87.7023 59.4453 87.7023 59.6093C87.7023 59.7734 87.8114 59.9374 88.0297 59.9921C88.1895 60.0722 88.4078 60.123 88.6846 60.1873C88.7859 60.2109 88.8951 60.2363 89.0121 60.2656C89.5033 60.3749 89.9398 60.4843 90.2673 60.5937C90.5948 60.7031 90.8676 60.9218 91.1405 61.1953C91.3588 61.4687 91.5225 61.8515 91.5225 62.289C91.5225 62.6718 91.4134 63.0546 91.1951 63.3828C90.9768 63.7109 90.6493 63.9843 90.2127 64.1484C89.7761 64.3671 89.2304 64.4218 88.5755 64.4218L88.4936 64.4116C88.0777 64.3599 87.6139 64.3023 87.1019 64.1484Z" fill="#4A2600"></path><path fill-rule="evenodd" clip-rule="evenodd" d="M98.1807 60.2654C97.9624 59.8826 97.6349 59.5545 97.2529 59.3357C96.8709 59.117 96.4343 59.0076 95.9977 58.9529C95.2882 58.9529 94.797 59.1717 94.4696 59.5545V59.0623H92.7777V66.117H94.5787V63.8201C94.9062 64.2029 95.3973 64.367 95.9977 64.367C96.4343 64.367 96.8709 64.2576 97.2529 64.0389C97.6349 63.8201 97.9624 63.492 98.1807 63.1092C98.399 62.6717 98.5081 62.2342 98.5081 61.6873C98.5081 61.1404 98.399 60.6482 98.1807 60.2654ZM96.7071 61.6873C96.7071 62.0701 96.598 62.3435 96.3797 62.5623C96.1614 62.781 95.9431 62.8904 95.6156 62.8904C95.2882 62.8904 95.0699 62.781 94.8516 62.5623C94.6333 62.3435 94.5241 62.0701 94.5241 61.6873C94.5241 61.3045 94.6333 61.031 94.8516 60.8123C95.0153 60.5935 95.2882 60.4842 95.6156 60.4842C95.9431 60.4842 96.1614 60.5935 96.3797 60.8123C96.598 61.031 96.7071 61.3045 96.7071 61.6873Z" fill="#4A2600"></path><path fill-rule="evenodd" clip-rule="evenodd" d="M100.746 63.9843C100.309 63.7655 99.9817 63.4374 99.7088 63.0546C99.4359 62.6718 99.3267 62.1796 99.3267 61.6874C99.3267 61.1952 99.4359 60.703 99.7088 60.3202C99.9817 59.9374 100.309 59.6093 100.746 59.3905C101.182 59.1718 101.673 59.0624 102.219 59.0624C102.765 59.0624 103.256 59.1718 103.693 59.3905C104.129 59.6093 104.457 59.9374 104.73 60.3202C105.003 60.703 105.112 61.1952 105.112 61.6874C105.112 62.1796 105.003 62.6718 104.73 63.0546C104.457 63.4374 104.129 63.7655 103.693 63.9843C103.256 64.203 102.765 64.3124 102.219 64.3124C101.673 64.3124 101.182 64.203 100.746 63.9843ZM102.983 62.5624C103.202 62.3436 103.311 62.0155 103.311 61.6327C103.311 61.2499 103.202 60.9765 102.983 60.7577C102.765 60.539 102.547 60.4296 102.219 60.4296C101.892 60.4296 101.619 60.539 101.455 60.7577C101.237 60.9765 101.128 61.2499 101.128 61.6327C101.128 62.0155 101.237 62.3436 101.455 62.5624C101.673 62.7811 101.892 62.8905 102.219 62.8905C102.547 62.8905 102.82 62.7811 102.983 62.5624Z" fill="#4A2600"></path><path d="M109.641 59.0077C109.314 59.0077 108.932 59.0623 108.659 59.1717C108.386 59.2811 108.113 59.4452 107.895 59.6639V59.0623H106.203V64.2577H108.004V61.9061C108.004 61.4686 108.113 61.1405 108.332 60.9217C108.55 60.703 108.877 60.5936 109.259 60.5936C109.279 60.5936 109.314 60.6009 109.358 60.6102C109.434 60.6263 109.538 60.6483 109.641 60.6483V59.0077Z" fill="#4A2600"></path><path d="M114.389 64.0389C114.226 64.1482 114.062 64.2029 113.844 64.2576C113.625 64.3123 113.407 64.3123 113.134 64.3123C112.479 64.3123 111.934 64.1482 111.606 63.8201C111.224 63.492 111.06 62.9998 111.06 62.3435V60.5935H110.296V59.2263H111.06V57.8592H112.861V59.2263H114.062V60.5935H112.861V62.2888C112.861 62.4529 112.916 62.617 113.025 62.7263C113.134 62.8357 113.243 62.8904 113.407 62.8904C113.625 62.8904 113.789 62.8357 113.953 62.7263L114.389 64.0389Z" fill="#4A2600"></path><path d="M118.483 62.2343C118.592 62.453 118.756 62.6171 118.974 62.7265C119.192 62.8905 119.41 62.9452 119.683 62.8905C119.956 62.8905 120.175 62.8358 120.393 62.7265C120.611 62.6171 120.775 62.453 120.884 62.2343C120.993 62.0155 121.048 61.7968 121.048 61.5233C121.048 61.2499 120.993 61.0311 120.884 60.8124C120.775 60.5936 120.611 60.4296 120.393 60.3202C120.175 60.2108 119.956 60.1561 119.683 60.1561C119.41 60.1561 119.192 60.2108 118.974 60.3202C118.756 60.4296 118.592 60.5936 118.483 60.8124C118.374 61.0311 118.319 61.2499 118.319 61.5233C118.319 61.7968 118.374 62.0155 118.483 62.2343Z" fill="#4A2600"></path><path d="M130.817 62.781V64.2576H125.523V57.5857H130.707V59.0623H127.378V60.156H130.325V61.5779H127.378V62.781H130.817Z" fill="#4A2600"></path><path d="M135.456 64.2577L137.584 59.0624H135.838L134.528 62.2343L133.327 59.0624H131.472L133.6 64.2577H135.456Z" fill="#4A2600"></path><path fill-rule="evenodd" clip-rule="evenodd" d="M143.369 62.1249H139.658C139.712 62.3983 139.876 62.6171 140.094 62.7265C140.313 62.8905 140.586 62.9452 140.913 62.9452C141.146 62.9452 141.299 62.9053 141.475 62.8596C141.505 62.8518 141.536 62.8438 141.568 62.8358C141.732 62.7811 141.95 62.6718 142.114 62.5077L143.041 63.4921C142.55 64.039 141.786 64.3124 140.858 64.3124C140.258 64.3124 139.712 64.203 139.276 63.9843C138.839 63.7655 138.457 63.4374 138.239 63.0546C137.966 62.6718 137.857 62.1796 137.857 61.6874C137.857 61.1952 137.966 60.703 138.239 60.3202C138.457 59.9374 138.839 59.6093 139.221 59.3905C139.658 59.1718 140.149 59.0624 140.695 59.0624C141.186 59.0624 141.677 59.1718 142.114 59.3905C142.55 59.6093 142.878 59.8827 143.096 60.3202C143.314 60.703 143.478 61.1952 143.478 61.7421C143.369 61.6874 143.369 61.8515 143.369 62.1249ZM139.931 60.539C139.767 60.703 139.603 60.9218 139.549 61.1952H141.677C141.622 60.9218 141.513 60.703 141.295 60.539C141.131 60.3749 140.858 60.3202 140.586 60.3202C140.367 60.2655 140.149 60.3749 139.931 60.539Z" fill="#4A2600"></path><path d="M149.973 61.2498C149.973 60.4842 149.754 59.9373 149.372 59.5545C148.99 59.1717 148.444 59.0076 147.844 58.9529C147.517 58.9529 147.189 59.0076 146.916 59.117C146.643 59.2263 146.425 59.3904 146.207 59.6092V59.0623H144.515V64.3123H146.316V61.7967C146.316 61.3592 146.425 61.0857 146.589 60.867C146.807 60.6482 147.025 60.5388 147.353 60.5388C147.899 60.5388 148.172 60.867 148.172 61.5779V64.2029H149.973V61.2498Z" fill="#4A2600"></path><path d="M154.884 64.0389C154.721 64.1482 154.557 64.2029 154.339 64.2576C154.12 64.3123 153.902 64.3123 153.629 64.3123C152.974 64.3123 152.428 64.1482 152.101 63.8201C151.719 63.492 151.555 62.9998 151.555 62.3435V60.5935H150.791V59.2263H151.555V57.8592H153.356V59.2263H154.557V60.5935H153.356V62.2888C153.356 62.4529 153.411 62.617 153.52 62.7263C153.629 62.8357 153.738 62.8904 153.902 62.8904C154.12 62.8904 154.284 62.8357 154.448 62.7263L154.884 64.0389Z" fill="#4A2600"></path><path d="M155.594 63.7656C155.812 63.9297 156.139 64.0391 156.576 64.1484C156.958 64.2578 157.395 64.3125 157.831 64.2578C158.377 64.2578 158.814 64.2031 159.196 64.0391C159.578 63.875 159.851 63.7109 160.069 63.4375C160.233 63.1641 160.342 62.8906 160.342 62.5625C160.342 62.1797 160.233 61.8516 160.014 61.6328C159.851 61.4141 159.578 61.3047 159.305 61.1953C159.032 61.0859 158.705 61.0313 158.268 60.9766C157.94 60.9219 157.722 60.8672 157.558 60.8125C157.395 60.7578 157.34 60.6484 157.34 60.5391C157.34 60.4297 157.449 60.3203 157.558 60.2656C157.668 60.2109 157.886 60.1563 158.159 60.1563C158.705 60.1563 159.196 60.2656 159.632 60.5391L160.178 59.3359C159.905 59.1719 159.632 59.0625 159.25 59.0078C158.923 58.9531 158.541 58.8984 158.159 58.8984C157.613 58.8984 157.176 58.9531 156.794 59.1172C156.412 59.2813 156.139 59.4453 155.921 59.7188C155.757 59.9922 155.648 60.2656 155.648 60.5938C155.648 60.9766 155.757 61.3047 155.976 61.5234C156.194 61.7422 156.467 61.9063 156.74 61.9609C157.013 62.0703 157.34 62.125 157.777 62.1797C158.104 62.2344 158.322 62.2891 158.486 62.3438C158.65 62.3438 158.705 62.4531 158.705 62.5625C158.705 62.6719 158.65 62.7812 158.541 62.8359C158.432 62.8906 158.213 62.9453 157.94 62.9453C157.613 62.9453 157.286 62.9453 156.958 62.8359C156.631 62.7812 156.358 62.6719 156.139 62.5078L155.594 63.7656Z" fill="#4A2600"></path></svg> 