<?xml version="1.0" encoding="UTF-8"?> <svg xmlns="http://www.w3.org/2000/svg" width="36" height="36" viewBox="0 0 36 36" fill="none"><path d="M31.5 4.5C32.3285 4.5 33 5.17158 33 6V30.0099C33 30.8328 32.3171 31.5 31.5123 31.5H4.4877C3.66608 31.5 3 30.8326 3 30.0099V28.5H30V10.95L18 21.75L3 8.25V6C3 5.17158 3.67158 4.5 4.5 4.5H31.5ZM12 22.5V25.5H0V22.5H12ZM7.5 15V18H0V15H7.5ZM29.3489 7.5H6.65121L18 17.714L29.3489 7.5Z" fill="url(#paint0_linear_37_4)"></path><defs><linearGradient id="paint0_linear_37_4" x1="0" y1="18" x2="33" y2="18" gradientUnits="userSpaceOnUse"><stop stop-color="#A567E1"></stop><stop offset="1" stop-color="#4995E1"></stop></linearGradient></defs></svg> 