<?xml version="1.0" encoding="UTF-8"?> <svg xmlns="http://www.w3.org/2000/svg" width="24" height="25" viewBox="0 0 24 25" fill="none"><g clip-path="url(#clip0_8_832)"><path d="M12 21.1969L16.9497 16.2471C19.6834 13.5135 19.6834 9.08128 16.9497 6.34761C14.2161 3.61394 9.78392 3.61394 7.05025 6.34761C4.31658 9.08128 4.31658 13.5135 7.05025 16.2471L12 21.1969ZM12 24.0253L5.63604 17.6614C2.12132 14.1466 2.12132 8.44812 5.63604 4.9334C9.15076 1.41868 14.8492 1.41868 18.364 4.9334C21.8787 8.44812 21.8787 14.1466 18.364 17.6614L12 24.0253ZM12 13.2974C13.1046 13.2974 14 12.402 14 11.2974C14 10.1928 13.1046 9.29736 12 9.29736C10.8954 9.29736 10 10.1928 10 11.2974C10 12.402 10.8954 13.2974 12 13.2974ZM12 15.2974C9.79086 15.2974 8 13.5065 8 11.2974C8 9.08822 9.79086 7.29736 12 7.29736C14.2091 7.29736 16 9.08822 16 11.2974C16 13.5065 14.2091 15.2974 12 15.2974Z" fill="url(#paint0_linear_8_832)"></path></g><defs><linearGradient id="paint0_linear_8_832" x1="3" y1="13.1613" x2="21" y2="13.1613" gradientUnits="userSpaceOnUse"><stop stop-color="#A567E1"></stop><stop offset="1" stop-color="#4995E1"></stop></linearGradient><clipPath id="clip0_8_832"><rect width="24" height="24" fill="white" transform="translate(0 0.297363)"></rect></clipPath></defs></svg> 