<?xml version="1.0" encoding="UTF-8"?> <svg xmlns="http://www.w3.org/2000/svg" width="40" height="40" viewBox="0 0 40 40" fill="none"><path d="M13.3333 5C6.89001 5 1.66666 10.2234 1.66666 16.6667C1.66666 23.11 6.89001 28.3333 13.3333 28.3333H15.1181C15.0403 27.789 15 27.2325 15 26.6667C15 26.1008 15.0403 25.5443 15.1181 25H13.3333C8.73096 25 4.99999 21.269 4.99999 16.6667C4.99999 12.0643 8.73096 8.33333 13.3333 8.33333H26.6667C31.269 8.33333 35 12.0643 35 16.6667C35 17.238 34.9425 17.7958 34.833 18.3347C35.8088 19.2913 36.6173 20.418 37.2107 21.6667C37.9305 20.1512 38.3333 18.456 38.3333 16.6667C38.3333 10.2234 33.11 5 26.6667 5H13.3333ZM26.6667 21.6667C23.9052 21.6667 21.6667 23.9052 21.6667 26.6667C21.6667 29.4282 23.9052 31.6667 26.6667 31.6667C29.4282 31.6667 31.6667 29.4282 31.6667 26.6667C31.6667 23.9052 29.4282 21.6667 26.6667 21.6667ZM18.3333 26.6667C18.3333 22.0643 22.0643 18.3333 26.6667 18.3333C31.269 18.3333 35 22.0643 35 26.6667C35 28.3652 34.4918 29.945 33.6193 31.2623L37.8452 35.4882L35.4882 37.8452L31.2623 33.6193C29.945 34.4918 28.3652 35 26.6667 35C22.0643 35 18.3333 31.269 18.3333 26.6667Z" fill="url(#paint0_linear_182_1786)"></path><defs><linearGradient id="paint0_linear_182_1786" x1="1.66666" y1="21.4226" x2="38.3333" y2="21.4226" gradientUnits="userSpaceOnUse"><stop stop-color="#A567E1"></stop><stop offset="1" stop-color="#4995E1"></stop></linearGradient></defs></svg> 