<?xml version="1.0" encoding="UTF-8"?> <svg xmlns="http://www.w3.org/2000/svg" width="40" height="40" viewBox="0 0 40 40" fill="none"><path d="M3.33333 19.9997C3.33333 18.5588 3.51616 17.1607 3.85991 15.8272C5.67703 15.9214 7.4808 15.0169 8.453 13.333C9.42445 11.6504 9.30676 9.63785 8.31868 8.11168C10.3059 6.15881 12.7805 4.70036 15.5434 3.93555C16.3703 5.55641 18.0555 6.66636 20 6.66636C21.9445 6.66636 23.6297 5.55641 24.4567 3.93555C27.2195 4.70036 29.6942 6.15881 31.6813 8.11168C30.6932 9.63785 30.5755 11.6504 31.547 13.333C32.5192 15.0169 34.323 15.9214 36.1402 15.8272C36.4838 17.1607 36.6667 18.5588 36.6667 19.9997C36.6667 21.4405 36.4838 22.8387 36.1402 24.1722C34.323 24.078 32.5192 24.9825 31.547 26.6663C30.5755 28.349 30.6932 30.3615 31.6813 31.8877C29.6942 33.8405 27.2195 35.299 24.4567 36.0638C23.6297 34.443 21.9445 33.333 20 33.333C18.0555 33.333 16.3703 34.443 15.5434 36.0638C12.7805 35.299 10.3059 33.8405 8.31868 31.8877C9.30676 30.3615 9.42445 28.349 8.453 26.6663C7.4808 24.9825 5.67703 24.078 3.85991 24.1722C3.51616 22.8387 3.33333 21.4405 3.33333 19.9997ZM11.3397 24.9997C12.3899 26.8187 12.691 28.9098 12.2803 30.8727C12.9599 31.3563 13.6834 31.7753 14.4415 32.1235C15.9363 30.7853 17.8987 29.9997 20 29.9997C22.1013 29.9997 24.0637 30.7853 25.5585 32.1235C26.3165 31.7753 27.04 31.3563 27.7197 30.8727C27.309 28.9098 27.61 26.8187 28.6603 24.9997C29.7103 23.1808 31.3708 21.8747 33.2758 21.2488C33.314 20.8358 33.3333 20.4193 33.3333 19.9997C33.3333 19.5802 33.314 19.1635 33.2758 18.7507C31.3708 18.1248 29.7103 16.8187 28.6603 14.9997C27.61 13.1807 27.309 11.0896 27.7197 9.12675C27.04 8.64313 26.3165 8.22411 25.5585 7.87586C24.0637 9.21406 22.1013 9.9997 20 9.9997C17.8987 9.9997 15.9363 9.21406 14.4415 7.87586C13.6834 8.22411 12.9599 8.64313 12.2803 9.12675C12.691 11.0896 12.3899 13.1807 11.3397 14.9997C10.2896 16.8187 8.62923 18.1248 6.72418 18.7507C6.68595 19.1635 6.66666 19.5802 6.66666 19.9997C6.66666 20.4193 6.68595 20.8358 6.72418 21.2488C8.62923 21.8747 10.2896 23.1808 11.3397 24.9997ZM20 24.9997C17.2385 24.9997 15 22.7612 15 19.9997C15 17.2383 17.2385 14.9997 20 14.9997C22.7615 14.9997 25 17.2383 25 19.9997C25 22.7612 22.7615 24.9997 20 24.9997ZM20 21.6663C20.9205 21.6663 21.6667 20.9202 21.6667 19.9997C21.6667 19.0792 20.9205 18.333 20 18.333C19.0795 18.333 18.3333 19.0792 18.3333 19.9997C18.3333 20.9202 19.0795 21.6663 20 21.6663Z" fill="url(#paint0_linear_37_2)"></path><defs><linearGradient id="paint0_linear_37_2" x1="3.33333" y1="19.9997" x2="36.6667" y2="19.9997" gradientUnits="userSpaceOnUse"><stop stop-color="#A567E1"></stop><stop offset="1" stop-color="#4995E1"></stop></linearGradient></defs></svg> 