<?xml version="1.0" encoding="UTF-8"?> <svg xmlns="http://www.w3.org/2000/svg" width="36" height="36" viewBox="0 0 36 36" fill="none"><path d="M18.0015 30C24.6289 30 30.0015 24.6275 30.0015 18C30.0015 11.3726 24.6289 6 18.0015 6C11.374 6 6.00146 11.3726 6.00146 18C6.00146 24.6275 11.374 30 18.0015 30ZM18.0015 33C9.71719 33 3.00146 26.2842 3.00146 18C3.00146 9.71573 9.71719 3 18.0015 3C26.2857 3 33.0015 9.71573 33.0015 18C33.0015 26.2842 26.2857 33 18.0015 33ZM13.3367 19.7562L9.58961 18.5867C8.77975 18.3383 8.77493 17.781 9.77095 17.3807L24.3705 11.7413C25.2172 11.3947 25.6987 11.8326 25.4242 12.9246L22.9375 24.6566C22.7644 25.4912 22.261 25.6899 21.5638 25.3047L17.7375 22.4735L15.9541 24.1946C15.7708 24.3714 15.6217 24.5234 15.3409 24.5615C15.06 24.5994 14.8285 24.5163 14.66 24.0506L13.3557 19.7442L13.3367 19.7562Z" fill="url(#paint0_linear_143_111)"></path><defs><linearGradient id="paint0_linear_143_111" x1="3.00146" y1="18" x2="33.0015" y2="18" gradientUnits="userSpaceOnUse"><stop stop-color="#A567E1"></stop><stop offset="1" stop-color="#4995E1"></stop></linearGradient></defs></svg> 