<?xml version="1.0" encoding="UTF-8"?> <svg xmlns="http://www.w3.org/2000/svg" width="34" height="34" viewBox="0 0 34 34" fill="none"><g clip-path="url(#clip0_143_115)"><path d="M32.5712 12.0001C32.5715 8.80687 31.3199 5.7968 29.0473 3.5242C26.7747 1.2516 23.7646 0 20.5712 0H13.461C13.4608 0 13.4608 0 13.4608 0C10.2678 0 7.25748 1.2516 4.98514 3.52394C2.71254 5.7968 1.46094 8.80687 1.46094 12.0001V17.5891C1.46094 20.0622 2.21527 22.4409 3.64249 24.4686C4.90161 26.2574 6.59497 27.6548 8.56926 28.5407V31.751C8.56926 33.4109 9.49869 34 10.2945 34C10.8631 34 11.4317 33.7193 11.9853 33.166L15.5619 29.5894L20.5714 29.5892C23.7646 29.5892 26.7747 28.3376 29.0473 26.0652C31.3199 23.7926 32.5715 20.7823 32.5715 17.5891L32.5712 12.0001ZM20.5714 27.597L15.1494 27.5972C14.8851 27.5972 14.6319 27.702 14.4452 27.8888L10.5768 31.7572C10.5718 31.7624 10.5666 31.7673 10.5614 31.7723C10.5614 31.7653 10.5614 31.758 10.5614 31.751V27.8758C10.5614 27.4626 10.3065 27.0925 9.92047 26.9451C6.05231 25.4691 3.45338 21.7091 3.45338 17.5891V12.0001C3.45338 9.3389 4.49773 6.82895 6.39394 4.93248C8.29015 3.03653 10.7998 1.99219 13.461 1.99219H20.5712C23.2323 1.99219 25.7423 3.03653 27.6385 4.93274C29.535 6.82921 30.5793 9.33916 30.579 12.0001L30.5793 17.5891C30.579 23.1076 26.0896 27.597 20.5714 27.597Z" fill="url(#paint0_linear_143_115)"></path><path d="M19.6651 16.2917C19.2762 15.9026 18.6456 15.9026 18.2565 16.2917L17.4519 17.0961L14.3339 13.9784L15.1386 13.174C15.3253 12.9872 15.4304 12.7338 15.4304 12.4695C15.4304 12.2054 15.3253 11.952 15.1386 11.7652L11.3664 7.993C11.1796 7.80623 10.9264 7.70117 10.6621 7.70117C10.398 7.70117 10.1446 7.80623 9.95783 7.993L7.31715 10.6337C5.88915 12.0617 5.88915 14.3856 7.31741 15.8144L15.6159 24.1134C16.3059 24.8031 17.2259 25.1829 18.2062 25.1829C19.1867 25.1829 20.1068 24.8031 20.7968 24.1134L23.4375 21.4729C23.6243 21.2859 23.7293 21.0327 23.7293 20.7684C23.7293 20.5043 23.6243 20.2509 23.4375 20.0641L19.6651 16.2917ZM19.388 22.7043C19.0744 23.0179 18.6547 23.1907 18.2062 23.1907C17.7577 23.1907 17.338 23.0179 17.0244 22.7043L8.72621 14.4056C8.07459 13.754 8.07434 12.6936 8.72595 12.0422L10.6621 10.1058L13.0255 12.4695L12.2208 13.2738C12.0341 13.4606 11.929 13.7141 11.929 13.9781C11.929 14.2424 12.0341 14.4956 12.2208 14.6826L16.7474 19.2092C17.1365 19.598 17.7671 19.5983 18.1562 19.2092L18.9608 18.4048L21.3242 20.7682L19.388 22.7043Z" fill="url(#paint1_linear_143_115)"></path><path d="M17.2578 4.40625C16.7077 4.40625 16.2617 4.85216 16.2617 5.40234C16.2617 5.95227 16.7077 6.39844 17.2578 6.39844C19.5374 6.39844 21.6809 7.2861 23.2928 8.89827C24.9049 10.5102 25.7926 12.6533 25.7926 14.9332C25.7926 15.4831 26.2385 15.9293 26.7887 15.9293C27.3386 15.9293 27.7848 15.4834 27.7848 14.9332C27.7848 12.1213 26.6899 9.47777 24.7016 7.48947C22.7133 5.50117 20.0697 4.40625 17.2578 4.40625Z" fill="url(#paint2_linear_143_115)"></path><path d="M21.525 14.9329C21.525 15.4828 21.9711 15.929 22.5211 15.929C23.0712 15.929 23.5172 15.4828 23.5172 14.9329C23.5172 11.4816 20.7092 8.67383 17.2578 8.67383C16.7077 8.67383 16.2617 9.11974 16.2617 9.66992C16.2617 10.2201 16.7077 10.666 17.2578 10.666C19.6109 10.666 21.525 12.5801 21.525 14.9329Z" fill="url(#paint3_linear_143_115)"></path></g><defs><linearGradient id="paint0_linear_143_115" x1="1.46094" y1="17" x2="32.5715" y2="17" gradientUnits="userSpaceOnUse"><stop stop-color="#A567E1"></stop><stop offset="1" stop-color="#4995E1"></stop></linearGradient><linearGradient id="paint1_linear_143_115" x1="6.24619" y1="16.442" x2="23.7293" y2="16.442" gradientUnits="userSpaceOnUse"><stop stop-color="#A567E1"></stop><stop offset="1" stop-color="#4995E1"></stop></linearGradient><linearGradient id="paint2_linear_143_115" x1="16.2617" y1="10.1678" x2="27.7848" y2="10.1678" gradientUnits="userSpaceOnUse"><stop stop-color="#A567E1"></stop><stop offset="1" stop-color="#4995E1"></stop></linearGradient><linearGradient id="paint3_linear_143_115" x1="16.2617" y1="12.3014" x2="23.5172" y2="12.3014" gradientUnits="userSpaceOnUse"><stop stop-color="#A567E1"></stop><stop offset="1" stop-color="#4995E1"></stop></linearGradient><clipPath id="clip0_143_115"><rect width="34" height="34" fill="white"></rect></clipPath></defs></svg> 